<svg xmlns="http://www.w3.org/2000/svg" version="1.1" xmlns:xlink="http://www.w3.org/1999/xlink" xmlns:svgjs="http://svgjs.dev/svgjs" width="1000" height="623" viewBox="0 0 1000 623"><g transform="matrix(1,0,0,1,-0.6060606060606233,0.2522267206477409)"><svg viewBox="0 0 396 247" data-background-color="#398378" preserveAspectRatio="xMidYMid meet" height="623" width="1000" xmlns="http://www.w3.org/2000/svg" xmlns:xlink="http://www.w3.org/1999/xlink"><g id="tight-bounds" transform="matrix(1,0,0,1,0.2400000000000091,-0.09999999999999432)"><svg viewBox="0 0 395.52 247.2" height="247.2" width="395.52"><g><svg></svg></g><g><svg viewBox="0 0 395.52 247.2" height="247.2" width="395.52"><g transform="matrix(1,0,0,1,151.61599999999999,37.08)"><svg viewBox="0 0 92.288 173.04" height="173.04" width="92.288"><g><svg viewBox="0 0 92.288 173.04" height="173.04" width="92.288"><g><svg viewBox="0 0 92.288 173.04" height="173.04" width="92.288"><g><svg viewBox="0 0 92.288 173.04" height="173.04" width="92.288"><g id="textblocktransform"><svg viewBox="0 0 92.288 173.04" height="173.04" width="92.288" id="textblock"><g><svg viewBox="0 0 92.288 173.04" height="173.04" width="92.288"><g transform="matrix(1,0,0,1,0,0)"><svg width="92.288" viewBox="4.050000190734863 -26.950000762939453 20 37.5" height="173.04" data-palette-color="#31c48d"><path d="M15.4-26.95Q19.7-26.95 21.88-23.4 24.05-19.85 24.05-13.25L24.05-13.25Q24.05-6.85 21.63-3.1 19.2 0.65 14.85 0.65L14.85 0.65Q10.95 0.65 8.55-2.5L8.55-2.5 8.55 10 4.05 10.55 4.05-26.3 8-26.3 8.25-22.75Q10.95-26.95 15.4-26.95L15.4-26.95ZM13.8-2.95Q19.35-2.95 19.35-13.2L19.35-13.2Q19.35-18.55 18.07-20.98 16.8-23.4 14.2-23.4L14.2-23.4Q12.45-23.4 11.1-22.35 9.75-21.3 8.55-19.5L8.55-19.5 8.55-6.2Q10.6-2.95 13.8-2.95L13.8-2.95Z" opacity="1" transform="matrix(1,0,0,1,0,0)" fill="#31c48d" class="undefined-text-0" data-fill-palette-color="primary" id="text-0"></path></svg></g></svg></g></svg></g></svg></g></svg></g></svg></g></svg></g><g mask="url(#7bb63c11-06d5-40a3-95ed-475065b86c5f)"><g transform="matrix(2.791883824304849, 0, 0, 2.791883824304849, 60.91581605572847, 1)"><svg xmlns="http://www.w3.org/2000/svg" xmlns:xlink="http://www.w3.org/1999/xlink" version="1.1" x="0" y="0" viewBox="0.9850000143051147 6.086999893188477 98.02999877929688 87.82600402832031" enable-background="new 0 0 100 100" xml:space="preserve" height="87.82600402832031" width="98.02999877929688" class="icon-none" data-fill-palette-color="accent" id="none"><path d="M50 6.087C22.93 6.087 0.985 25.748 0.985 50 0.985 74.253 22.93 93.913 50 93.913c27.07 0 49.015-19.66 49.015-43.913C99.015 25.748 77.07 6.087 50 6.087zM74.833 69.08c-32.125 19.166-60.851-0.667-66.379-6.454 14.492 11.331 37.288 14.851 56.379 6.787C76.146 64.037 82.172 56.755 85 47.079c2.829-10.751-0.536-20.965-11.143-27.954-9.899-6.451-22.628-8.601-35.355-5.376-9.899 3.226-17.678 9.139-20.506 17.74-3.535 9.139 2.829 18.277 13.435 23.115 10.606 3.763 25.456 2.15 31.113-6.45 3.535-5.914 2.121-13.44-5.657-17.203-3.535-1.613-8.303-1.955-10.86 0.174-3.521 2.932 1.89 0.361 5.874 2.206 2.517 1.165 5.6 3.165 4.986 8.372-0.772 6.559-11.313 9.677-18.385 7.526-7.778-2.688-11.314-8.601-10.606-14.515 1.414-6.451 7.778-11.289 15.557-12.902 13.435-2.688 25.455 4.301 29.698 13.978 3.535 9.138-2.121 17.739-12.021 23.115-8.484 4.301-18.385 5.376-27.577 2.688-13.435-3.763-22.627-12.901-23.334-24.19C9.511 22.888 22.238 12.137 39.916 8.374c19.799-3.225 39.598 4.301 48.083 18.277C95.777 41.166 91.609 59.071 74.833 69.08z" fill="#c9efc7" data-fill-palette-color="accent"></path></svg></g></g></svg></g><defs><mask id="7bb63c11-06d5-40a3-95ed-475065b86c5f"><rect width="640" height="400" fill="white"></rect><rect width="101.5168" height="254.74118208" fill="black" y="-3.7705910399999993" x="147.0016" id="transform-me"></rect></mask></defs></svg><rect width="395.52" height="247.2" fill="none" stroke="none" visibility="hidden"></rect></g></svg></g></svg>